<svg xmlns="http://www.w3.org/2000/svg" width="320" height="400" viewBox="0 0 320 400" font-family="-apple-system, system-ui, sans-serif">
  <defs>
    <filter id="cardShadow" x="-20%" y="-10%" width="140%" height="130%">
      <feDropShadow dx="0" dy="7" stdDeviation="13" flood-color="#000000" flood-opacity="0.24"/>
    </filter>
  </defs>

  <rect x="26" y="20" width="268" height="320" rx="14" fill="#ffffff" stroke="#eff3f4" stroke-width="1" filter="url(#cardShadow)"/>

  <g transform="translate(38,32) scale(0.6667)">
    <path fill="#1D9BF0" d="M23.953 4.57a10 10 0 01-2.825.775 4.958 4.958 0 002.163-2.723c-.951.555-2.005.959-3.127 1.184a4.92 4.92 0 00-8.384 4.482C7.69 8.095 4.067 6.13 1.64 3.162a4.822 4.822 0 00-.666 2.475c0 1.71.87 3.213 2.188 4.096a4.904 4.904 0 01-2.228-.616v.06a4.923 4.923 0 003.946 4.827 4.996 4.996 0 01-2.212.085 4.936 4.936 0 004.604 3.417 9.867 9.867 0 01-6.102 2.105c-.39 0-.779-.023-1.17-.067a13.995 13.995 0 007.557 2.209c9.053 0 13.998-7.496 13.998-13.985 0-.21 0-.42-.015-.63A9.935 9.935 0 0024 4.59z"/>
  </g>
  <text x="60" y="44.5" font-size="12.5" font-weight="700" fill="#0f1419">트윗 수집기</text>
  <line x1="242" y1="40" x2="252" y2="40" stroke="#536471" stroke-width="1.5" stroke-linecap="round"/>
  <g stroke="#536471" stroke-width="1.5" stroke-linecap="round">
    <line x1="271" y1="36" x2="279" y2="44"/>
    <line x1="279" y1="36" x2="271" y2="44"/>
  </g>
  <line x1="26" y1="60" x2="294" y2="60" stroke="#eff3f4" stroke-width="1"/>

  <text x="38" y="99" font-size="26" font-weight="800" letter-spacing="-0.5" fill="#0f1419">1</text>
  <text x="57" y="99" font-size="12.5" fill="#536471">/ 1,000</text>

  <rect x="38" y="112" width="244" height="5" rx="2.5" fill="#f7f9fa"/>
  <rect x="38" y="112" width="3" height="5" rx="2.5" fill="#1d9bf0"/>

  <text x="38" y="138" font-size="11" fill="#536471">0:00</text>

  <rect x="38" y="152" width="244" height="28" rx="8" fill="#f7f9fa"/>
  <circle cx="50.5" cy="166" r="3.5" fill="#1d9bf0"/>
  <text x="61" y="170" font-size="11.5" fill="#0f1419">수집 중</text>

  <rect x="38" y="191" width="119" height="31" rx="8" fill="#f7f9fa" stroke="#eff3f4" stroke-width="1"/>
  <text x="97.5" y="210" font-size="11.5" font-weight="600" fill="#0f1419" text-anchor="middle">일시정지</text>
  <rect x="163" y="191" width="119" height="31" rx="8" fill="#f7f9fa" stroke="#eff3f4" stroke-width="1"/>
  <text x="222.5" y="210" font-size="11.5" font-weight="600" fill="#f4212e" text-anchor="middle">중단·저장</text>

  <rect x="38" y="228" width="50" height="31" rx="8" fill="#f7f9fa" stroke="#eff3f4" stroke-width="1"/>
  <text x="63" y="247" font-size="11.5" font-weight="600" fill="#0f1419" text-anchor="middle">빠르게</text>
  <text x="159" y="247" font-size="11.5" fill="#536471" text-anchor="middle">2000ms</text>
  <rect x="230" y="228" width="50" height="31" rx="8" fill="#f7f9fa" stroke="#eff3f4" stroke-width="1"/>
  <text x="255" y="247" font-size="11.5" font-weight="600" fill="#0f1419" text-anchor="middle">느리게</text>

  <rect x="38" y="265" width="244" height="31" rx="8" fill="#f7f9fa" stroke="#eff3f4" stroke-width="1"/>
  <text x="159" y="284" font-size="11.5" font-weight="600" fill="#0f1419" text-anchor="middle">필터 OFF</text>

  <line x1="38" y1="304" x2="280" y2="304" stroke="#eff3f4" stroke-width="1"/>
  <text x="38" y="323" font-size="10.5" fill="#536471">API 1</text>
</svg>
